<svg width="1066" height="490" viewBox="0 0 1066 490" fill="none" xmlns="http://www.w3.org/2000/svg">
<path d="M0.746582 0.818359V331H27.568V285.681H28.4929C35.2754 302.329 46.2197 315.123 61.3261 324.063C76.7407 333.004 94.1592 337.474 113.582 337.474C131.771 337.474 147.494 334.237 160.75 327.763C174.315 320.98 185.568 311.886 194.508 300.479C203.449 288.764 210.077 275.353 214.393 260.247C218.709 244.832 220.868 228.647 220.868 211.691C220.868 194.734 218.709 178.703 214.393 163.597C210.077 148.182 203.449 134.772 194.508 123.365C185.568 111.65 174.315 102.401 160.75 95.6184C147.494 88.8359 131.771 85.4447 113.582 85.4447C104.949 85.4447 96.3173 86.5237 87.6851 88.6817C79.0529 90.8398 71.0373 94.231 63.6383 98.8554C56.2393 103.172 49.611 108.567 43.7534 115.041C38.2041 121.515 33.888 129.068 30.8051 137.7H29.8802V0.818359H0.746582ZM191.734 211.691C191.734 224.022 190.192 236.354 187.109 248.686C184.335 260.709 179.71 271.499 173.236 281.056C167.07 290.613 159.055 298.475 149.189 304.641C139.324 310.498 127.455 313.427 113.582 313.427C98.167 313.427 85.0646 310.498 74.2744 304.641C63.7924 298.475 55.1602 290.613 48.3778 281.056C41.9036 271.499 37.1251 260.709 34.0422 248.686C31.2676 236.354 29.8802 224.022 29.8802 211.691C29.8802 199.359 31.2676 187.181 34.0422 175.158C37.1251 162.826 41.9036 151.882 48.3778 142.325C55.1602 132.768 63.7924 125.06 74.2744 119.203C85.0646 113.037 98.167 109.954 113.582 109.954C127.455 109.954 139.324 113.037 149.189 119.203C159.055 125.06 167.07 132.768 173.236 142.325C179.71 151.882 184.335 162.826 187.109 175.158C190.192 187.181 191.734 199.359 191.734 211.691Z" fill="#038000"/>
<path d="M235.767 165.447H264.9C265.517 146.024 271.683 131.997 283.398 123.365C295.113 114.424 310.219 109.954 328.717 109.954C337.349 109.954 345.365 110.725 352.764 112.266C360.471 113.499 367.099 115.966 372.649 119.665C378.506 123.365 382.976 128.452 386.059 134.926C389.451 141.092 391.146 149.107 391.146 158.972C391.146 165.447 390.221 170.688 388.372 174.695C386.83 178.703 384.518 181.94 381.435 184.407C378.352 186.565 374.498 188.106 369.874 189.031C365.25 189.956 359.854 190.727 353.689 191.343C337.966 193.193 322.397 195.197 306.982 197.355C291.876 199.205 278.157 202.596 265.825 207.529C253.802 212.461 244.091 219.706 236.692 229.263C229.293 238.512 225.593 251.46 225.593 268.108C225.593 280.131 227.597 290.613 231.605 299.554C235.921 308.186 241.624 315.431 248.715 321.289C256.114 326.838 264.592 330.846 274.149 333.312C284.014 336.087 294.496 337.474 305.595 337.474C317.31 337.474 327.33 336.395 335.654 334.237C344.286 332.079 351.839 328.996 358.313 324.988C365.095 320.98 371.107 316.048 376.348 310.19C381.897 304.024 387.293 297.088 392.533 289.38H393.458C393.458 295.546 393.767 301.25 394.383 306.49C395.308 311.423 397.004 315.739 399.47 319.439C401.936 323.138 405.328 326.067 409.644 328.225C414.268 330.075 420.28 331 427.679 331C431.687 331 434.924 330.846 437.39 330.537C440.165 330.229 443.248 329.767 446.639 329.15V304.641C443.864 305.874 440.781 306.49 437.39 306.49C425.983 306.49 420.28 300.633 420.28 288.918V162.21C420.28 146.178 417.659 133.23 412.418 123.365C407.177 113.191 400.395 105.33 392.071 99.7803C383.747 94.231 374.344 90.5315 363.862 88.6817C353.38 86.5237 342.898 85.4447 332.416 85.4447C318.543 85.4447 305.903 86.9862 294.496 90.0691C283.09 93.152 273.07 97.9305 264.438 104.405C256.114 110.879 249.486 119.203 244.553 129.376C239.62 139.55 236.692 151.573 235.767 165.447ZM391.146 200.592V238.512C391.146 250.227 388.834 260.709 384.21 269.958C379.893 279.207 373.882 287.068 366.174 293.542C358.775 300.016 349.989 304.949 339.815 308.34C329.642 311.731 319.006 313.427 307.907 313.427C301.125 313.427 294.496 312.348 288.022 310.19C281.548 308.032 275.845 304.949 270.912 300.941C265.979 296.625 261.972 291.692 258.889 286.143C256.114 280.286 254.727 273.657 254.727 266.258C254.727 254.543 258.118 245.603 264.9 239.437C271.991 232.963 280.932 228.03 291.722 224.639C302.512 221.248 314.381 218.781 327.33 217.24C340.586 215.39 353.38 213.386 365.712 211.228C369.72 210.611 374.344 209.532 379.585 207.991C384.826 206.45 388.372 203.983 390.221 200.592H391.146Z" fill="#038000"/>
<path d="M450.132 0.818359V331H479.266V191.806C479.574 180.091 481.424 169.3 484.815 159.435C488.515 149.261 493.447 140.629 499.613 133.538C506.087 126.139 513.795 120.436 522.735 116.428C531.984 112.112 542.466 109.954 554.181 109.954C565.896 109.954 575.608 111.804 583.315 115.503C591.33 119.203 597.65 124.29 602.275 130.764C606.899 137.238 610.136 144.945 611.986 153.886C613.836 162.518 614.761 171.921 614.761 182.094V331H643.894V177.47C643.894 163.289 642.507 150.494 639.732 139.088C636.958 127.681 632.179 118.124 625.397 110.416C618.614 102.401 609.52 96.2349 598.113 91.9188C587.014 87.6027 573.141 85.4447 556.493 85.4447C539.537 85.4447 523.969 89.9149 509.787 98.8554C495.606 107.488 485.74 119.049 480.191 133.538H479.266V0.818359H450.132Z" fill="#038000"/>
<path d="M772.04 109.954C785.914 109.954 798.091 112.883 808.573 118.74C819.055 124.598 827.687 132.305 834.47 141.862C841.56 151.419 846.801 162.364 850.193 174.695C853.892 186.719 855.742 199.051 855.742 211.691C855.742 224.331 853.892 236.816 850.193 249.148C846.801 261.171 841.56 271.962 834.47 281.519C827.687 291.076 819.055 298.783 808.573 304.641C798.091 310.498 785.914 313.427 772.04 313.427C758.167 313.427 745.99 310.498 735.508 304.641C725.026 298.783 716.239 291.076 709.149 281.519C702.366 271.962 697.125 261.171 693.426 249.148C690.035 236.816 688.339 224.331 688.339 211.691C688.339 199.051 690.035 186.719 693.426 174.695C697.125 162.364 702.366 151.419 709.149 141.862C716.239 132.305 725.026 124.598 735.508 118.74C745.99 112.883 758.167 109.954 772.04 109.954ZM772.04 85.4447C753.851 85.4447 737.666 88.8359 723.484 95.6184C709.611 102.401 697.896 111.495 688.339 122.902C678.782 134.309 671.537 147.72 666.604 163.134C661.672 178.241 659.205 194.426 659.205 211.691C659.205 228.955 661.672 245.294 666.604 260.709C671.537 275.815 678.782 289.072 688.339 300.479C697.896 311.886 709.611 320.98 723.484 327.763C737.666 334.237 753.851 337.474 772.04 337.474C790.23 337.474 806.261 334.237 820.134 327.763C834.316 320.98 846.185 311.886 855.742 300.479C865.299 289.072 872.544 275.815 877.477 260.709C882.409 245.294 884.876 228.955 884.876 211.691C884.876 194.426 882.409 178.241 877.477 163.134C872.544 147.72 865.299 134.309 855.742 122.902C846.185 111.495 834.316 102.401 820.134 95.6184C806.261 88.8359 790.23 85.4447 772.04 85.4447Z" fill="#038000"/>
<path d="M900.443 92.3813V331H929.577V203.829C929.577 191.189 931.735 179.628 936.051 169.146C940.367 158.356 946.379 149.107 954.086 141.4C962.102 133.692 971.505 127.835 982.295 123.827C993.085 119.511 1005.11 117.661 1018.36 118.278V89.1442C996.785 88.2193 978.133 92.9979 962.41 103.48C946.995 113.962 935.588 128.914 928.189 148.336H927.265V92.3813H900.443Z" fill="#038000"/>
<path d="M0.735352 244.237H109.871C134.226 244.237 153.032 249.016 166.288 258.573C179.545 268.13 186.173 282.157 186.173 300.655C186.173 314.836 182.474 326.706 175.075 336.263C167.984 345.82 157.965 352.448 145.016 356.148V357.072C160.739 359.847 173.071 366.013 182.011 375.57C190.952 385.127 195.422 398.692 195.422 416.265C195.422 437.845 188.177 454.339 173.688 465.746C159.198 477.152 137.926 482.856 109.871 482.856H0.735352V244.237ZM106.634 458.347C126.981 458.347 141.933 454.647 151.49 447.248C161.356 439.541 166.288 428.134 166.288 413.028C166.288 399.154 161.356 388.518 151.49 381.119C141.933 373.72 126.981 370.021 106.634 370.021H29.869V458.347H106.634ZM106.634 347.361C123.282 347.361 135.768 343.816 144.091 336.725C152.724 329.634 157.04 320.077 157.04 308.054C157.04 281.849 140.238 268.747 106.634 268.747H29.869V347.361H106.634Z" fill="#038000"/>
<path d="M308.073 489.33C288.959 489.33 272.619 486.093 259.054 479.619C245.49 472.836 234.391 463.742 225.759 452.335C217.127 440.62 210.653 427.209 206.336 412.103C202.329 396.996 200.325 380.811 200.325 363.547C200.325 347.824 202.329 332.409 206.336 317.303C210.653 302.196 217.127 288.786 225.759 277.071C234.391 265.047 245.49 255.49 259.054 248.399C272.619 241 288.959 237.301 308.073 237.301C327.187 237.301 343.527 241.154 357.091 248.862C370.656 256.569 381.601 266.743 389.925 279.383C398.557 291.714 404.723 306.05 408.422 322.39C412.122 338.421 413.663 354.76 413.047 371.408H229.458C229.458 382.198 230.846 393.143 233.62 404.241C236.703 415.34 241.482 425.359 247.956 434.3C254.43 443.24 262.6 450.639 272.465 456.497C282.331 462.354 294.2 465.283 308.073 465.283C329.345 465.283 345.993 459.734 358.016 448.635C370.04 437.537 378.364 422.739 382.988 404.241H412.122C405.956 431.371 394.549 452.335 377.901 467.133C361.562 481.931 338.286 489.33 308.073 489.33ZM383.913 346.899C383.605 335.8 381.601 325.164 377.901 314.991C374.51 304.817 369.577 295.876 363.103 288.169C356.629 280.153 348.768 273.833 339.519 269.209C330.27 264.276 319.788 261.81 308.073 261.81C296.05 261.81 285.413 264.276 276.165 269.209C266.916 273.833 259.054 280.153 252.58 288.169C246.106 295.876 240.865 304.971 236.857 315.453C233.158 325.627 230.692 336.109 229.458 346.899H383.913Z" fill="#038000"/>
<path d="M525.213 489.33C507.024 489.33 490.839 486.093 476.657 479.619C462.784 472.836 451.069 463.742 441.512 452.335C431.955 440.928 424.71 427.671 419.777 412.565C414.845 397.151 412.378 380.811 412.378 363.547C412.378 346.591 414.845 330.405 419.777 314.991C424.71 299.576 431.955 286.165 441.512 274.758C451.069 263.352 462.784 254.257 476.657 247.474C490.839 240.692 507.024 237.301 525.213 237.301C550.802 237.301 572.382 244.083 589.955 257.648C607.836 271.213 618.472 291.714 621.863 319.152H592.729C588.722 301.272 581.323 287.244 570.532 277.071C559.742 266.897 544.636 261.81 525.213 261.81C511.34 261.81 499.163 264.739 488.681 270.596C478.199 276.454 469.412 284.161 462.322 293.718C455.539 303.275 450.298 314.22 446.599 326.551C443.207 338.575 441.512 350.907 441.512 363.547C441.512 376.187 443.207 388.672 446.599 401.004C450.298 413.028 455.539 423.818 462.322 433.375C469.412 442.932 478.199 450.639 488.681 456.497C499.163 462.354 511.34 465.283 525.213 465.283C534.154 465.283 542.632 463.588 550.647 460.196C558.663 456.805 565.754 452.181 571.92 446.323C578.086 440.157 583.172 432.912 587.18 424.589C591.188 416.265 593.654 407.17 594.579 397.305H623.713C619.705 426.284 609.069 448.944 591.805 465.283C574.54 481.314 552.343 489.33 525.213 489.33Z" fill="#038000"/>
<path d="M635.993 244.237H665.126V345.511H800.621V244.237H829.755V482.856H800.621V370.021H665.126V482.856H635.993V244.237Z" fill="#038000"/>
<path d="M924.143 489.33C913.044 489.33 902.562 487.943 892.697 485.168C883.14 482.702 874.662 478.694 867.263 473.145C860.172 467.287 854.469 460.042 850.153 451.41C846.145 442.47 844.141 431.988 844.141 419.964C844.141 403.316 847.84 390.368 855.239 381.119C862.638 371.562 872.35 364.317 884.373 359.385C896.705 354.452 910.424 351.061 925.53 349.211C940.945 347.053 956.514 345.049 972.236 343.199C978.094 342.583 983.335 341.812 987.959 340.887C992.892 339.962 996.9 338.421 999.983 336.263C1003.07 333.796 1005.38 330.559 1006.92 326.551C1008.77 322.544 1009.69 317.303 1009.69 310.829C1009.69 300.963 1008 292.948 1004.61 286.782C1001.52 280.308 997.054 275.221 991.196 271.521C985.647 267.822 979.019 265.355 971.312 264.122C963.913 262.581 955.897 261.81 947.265 261.81C928.767 261.81 913.661 266.28 901.946 275.221C890.231 283.853 884.065 297.88 883.448 317.303H854.315C856.164 289.248 865.721 268.901 882.986 256.261C900.558 243.621 923.218 237.301 950.964 237.301C961.446 237.301 971.928 238.38 982.41 240.538C992.892 242.388 1002.29 246.087 1010.62 251.636C1018.94 257.186 1025.73 265.047 1030.97 275.221C1036.21 285.086 1038.83 298.034 1038.83 314.066V440.774C1038.83 452.489 1044.53 458.347 1055.94 458.347C1059.64 458.347 1062.72 457.73 1065.19 456.497V481.006C1061.8 481.623 1058.71 482.085 1055.94 482.393C1053.47 482.702 1050.23 482.856 1046.23 482.856C1038.83 482.856 1032.82 481.931 1028.19 480.081C1023.88 477.923 1020.48 474.994 1018.02 471.295C1015.55 467.595 1013.86 463.279 1012.93 458.347C1012.31 453.106 1012.01 447.402 1012.01 441.236H1011.08C1005.84 448.944 1000.45 455.88 994.896 462.046C989.655 467.904 983.643 472.836 976.861 476.844C970.387 480.852 962.834 483.935 954.201 486.093C945.569 488.251 935.55 489.33 924.143 489.33ZM926.455 465.283C937.554 465.283 948.19 463.588 958.363 460.196C968.537 456.805 977.323 451.872 984.722 445.398C992.43 438.924 998.441 431.063 1002.76 421.814C1007.38 412.565 1009.69 402.083 1009.69 390.368V352.448H1008.77C1006.92 355.839 1003.37 358.306 998.133 359.847C992.892 361.389 988.268 362.468 984.26 363.084C971.928 365.242 959.134 367.246 945.877 369.096C932.929 370.637 921.06 373.104 910.27 376.495C899.479 379.886 890.539 384.819 883.448 391.293C876.666 397.767 873.275 406.708 873.275 418.114C873.275 425.513 874.662 432.142 877.436 437.999C880.519 443.549 884.527 448.481 889.46 452.797C894.393 456.805 899.942 459.888 906.108 462.046C912.582 464.204 919.364 465.283 926.455 465.283Z" fill="#038000"/>
</svg>
