<svg width="600" height="600" viewBox="0 0 600 600" fill="none" xmlns="http://www.w3.org/2000/svg">
<path d="M180.586 205.98L179.051 214.042C178.283 217.497 175.98 224.023 172.525 232.853C169.07 241.682 165.231 249.36 160.624 256.27C151.411 269.706 132.984 282.758 111.486 282.758C87.6851 282.758 67.7229 270.09 51.2156 244.753C35.0923 219.417 27.0306 185.25 27.0306 142.639C27.0306 98.4915 35.0923 63.9415 50.8317 39.3726C66.9551 14.8037 87.3012 2.51919 111.486 2.51919C124.155 2.51919 135.671 6.35808 145.268 13.652L166.382 4.43864L180.586 85.0554L170.989 86.9748C161.392 59.7187 152.562 40.9081 144.501 30.1592C136.823 19.4103 127.61 14.0359 117.245 14.0359C86.1495 14.0359 67.339 58.1831 67.339 142.639C67.339 227.478 86.9173 267.403 119.164 267.403C151.411 267.403 165.231 226.711 169.454 210.587L170.989 204.061L180.586 205.98ZM227.745 256.27C211.621 238.995 203.56 216.346 203.56 188.705C203.56 161.065 211.621 138.416 227.361 121.141C243.484 103.482 263.83 94.6526 288.015 94.6526C312.2 94.6526 332.546 103.482 348.286 121.141C364.409 138.416 372.471 161.065 372.471 188.705C372.471 216.346 364.409 238.995 348.286 256.654C332.546 273.929 312.2 282.758 288.015 282.758C263.83 282.758 243.484 273.929 227.745 256.27ZM253.849 248.976C261.527 263.948 273.044 271.242 288.015 271.242C318.343 271.242 334.082 239.763 334.082 188.705C334.082 162.985 330.243 143.023 322.181 128.435C314.504 113.463 302.987 106.169 288.015 106.169C273.044 106.169 261.527 113.463 253.849 128.051C245.787 143.023 241.949 162.985 241.949 188.705C241.949 214.426 245.787 234.388 253.849 248.976ZM395.504 277V267.403H397.424C413.931 267.403 416.618 262.412 416.618 242.45V134.961C416.618 114.999 413.931 110.008 397.424 110.008H395.504V100.411H397.424C421.225 100.411 436.58 97.7237 443.49 92.7332H449.249V131.122C451.936 128.435 455.007 124.98 459.23 121.141C463.453 116.918 471.13 111.544 482.647 105.018C494.164 98.1076 504.913 94.6526 514.51 94.6526C542.534 94.6526 556.738 112.695 556.738 148.397V242.45C556.738 262.412 559.425 267.403 575.932 267.403H577.852V277H502.993V267.403H504.913C521.42 267.403 524.107 262.412 524.107 242.45V150.317C524.107 127.283 515.278 115.767 497.235 115.767C482.263 115.767 464.604 126.899 455.775 135.729L449.249 142.639V242.45C449.249 262.412 451.936 267.403 468.443 267.403H470.363V277H395.504ZM182.755 386.398L184.29 382.175L191.968 384.094C191.584 387.166 190.816 390.621 183.139 403.289C179.3 409.815 174.693 415.573 169.702 420.564C159.337 430.161 138.607 439.758 115.19 439.758C91.0052 439.758 70.659 431.313 54.5357 414.038C38.7962 396.763 30.7345 374.113 30.7345 345.705C30.7345 318.065 39.1801 295.416 56.0712 278.141C73.3462 260.482 94.844 251.653 120.949 251.653C140.527 251.653 156.266 256.259 168.935 265.857C181.603 275.454 188.129 286.587 188.129 299.639C188.129 314.994 178.916 322.672 168.167 322.672C158.57 322.672 149.74 316.146 149.74 303.862C149.74 298.103 153.579 289.274 153.579 284.283C153.579 270.079 142.83 263.169 120.949 263.169C104.441 263.169 91.389 270.847 82.5596 285.819C73.7301 300.79 69.1235 319.601 69.1235 343.018C69.1235 390.237 88.7018 422.483 128.626 422.483C162.025 422.483 177.764 397.147 182.755 386.398ZM376.415 282.364C376.415 294.648 368.737 303.478 356.453 303.478C344.168 303.478 338.026 294.264 338.026 284.667C338.026 272.767 334.187 267.008 326.509 267.008C321.519 267.008 315.76 270.463 309.234 277.373C302.708 283.899 291.575 297.719 276.604 318.833V395.611C276.604 408.663 278.139 416.725 280.826 419.796C283.514 422.867 292.343 424.403 307.315 424.403H313.073V434H211.342V424.403H213.262C228.234 424.403 237.063 422.867 239.75 419.796C242.437 416.725 243.973 408.663 243.973 395.611V284.283C243.973 276.222 243.205 271.615 241.67 269.695C240.134 267.776 235.144 267.008 226.698 267.008H211.342V257.411H217.101C245.892 257.411 263.935 254.724 270.845 249.733H276.604V303.478C292.727 282.364 305.011 268.544 313.073 262.018C321.135 255.108 330.732 251.653 341.865 251.653C362.211 251.653 376.415 265.089 376.415 282.364ZM568.449 328.43V334.189H441.766V343.018C441.766 390.237 461.344 422.483 501.269 422.483C534.667 422.483 550.407 397.147 555.397 386.398L556.933 382.175L564.61 384.094C564.227 387.166 563.459 390.621 555.781 403.289C551.942 409.815 547.335 415.573 542.345 420.564C531.98 430.161 511.25 439.758 487.833 439.758C463.648 439.758 443.301 431.313 427.178 414.038C411.439 396.763 403.377 374.113 403.377 345.705C403.377 317.682 411.439 295.032 427.178 277.757C442.918 260.482 464.031 251.653 489.752 251.653C515.857 251.653 535.435 258.947 548.487 273.534C561.923 288.122 568.449 306.549 568.449 328.43ZM442.918 322.672H531.98C531.98 283.132 517.776 263.169 489.752 263.169C462.88 263.169 447.14 283.132 442.918 322.672ZM116.217 426.928V415.411H135.412C152.687 415.411 164.204 412.724 169.962 407.349C175.72 401.975 181.479 389.306 187.237 369.344L194.915 342.472H200.673V415.411H271.693V426.928H200.673V534.417C200.673 565.128 211.422 580.483 233.304 580.483C242.901 580.483 251.346 577.028 258.64 570.502C265.934 563.976 270.925 557.066 273.612 550.54L277.451 540.175L287.048 542.094C286.664 545.166 285.513 548.621 278.986 561.289C275.531 567.815 271.693 573.573 267.47 578.564C259.408 588.161 242.133 597.758 223.706 597.758C186.469 597.758 168.042 575.493 168.042 530.578V426.928H116.217ZM475.289 486.43V492.189H348.605V501.018C348.605 548.237 368.184 580.483 408.108 580.483C441.507 580.483 457.246 555.147 462.237 544.398L463.772 540.175L471.45 542.094C471.066 545.166 470.298 548.621 462.62 561.289C458.782 567.815 454.175 573.573 449.184 578.564C438.819 588.161 418.089 597.758 394.672 597.758C370.487 597.758 350.141 589.313 334.018 572.038C318.278 554.763 310.216 532.113 310.216 503.705C310.216 475.682 318.278 453.032 334.018 435.757C349.757 418.482 370.871 409.653 396.591 409.653C422.696 409.653 442.274 416.947 455.327 431.534C468.763 446.122 475.289 464.549 475.289 486.43ZM349.757 480.672H438.819C438.819 441.132 424.615 421.169 396.591 421.169C369.719 421.169 353.98 441.132 349.757 480.672Z" fill="white"/>
</svg>
