<svg width="622" height="260" viewBox="0 0 622 260" fill="none" xmlns="http://www.w3.org/2000/svg">
<path d="M6.12336 0.947663V57H13.5813V7.22804H42.8635V0.947663H6.12336ZM29.8318 62.6131C21.6673 62.6131 15.1514 65.3607 10.2841 70.9346C5.41682 76.5084 2.98318 83.4953 2.98318 91.9738C2.98318 108.381 13.0318 121.335 29.8318 121.335C46.0822 121.335 56.6804 109.088 56.6804 91.9738C56.6804 75.8804 46.8673 62.6131 29.8318 62.6131ZM10.4411 91.9738C10.4411 85.3794 12.1682 79.8841 15.5439 75.4879C18.9981 71.0916 23.7084 68.8935 29.7533 68.8935C35.8766 68.8935 40.6654 71.0916 44.1196 75.4879C47.4953 79.8056 49.2224 85.3794 49.2224 91.9738C49.2224 105.241 42.0785 115.054 29.8318 115.054C18.0561 115.054 10.4411 105.555 10.4411 91.9738ZM29.9103 125.613C21.7458 125.613 15.3084 128.361 10.5196 133.856C5.73084 139.351 3.3757 146.417 3.3757 155.131C3.3757 164.002 5.65234 171.067 10.2841 176.406C14.9159 181.665 21.2748 184.335 29.2822 184.335C43.0991 184.335 51.9701 176.327 53.5402 161.882H46.0822C45.3757 171.695 39.0953 178.054 29.9103 178.054C17.6636 178.054 10.8336 168.791 10.8336 154.581C10.8336 141.236 17.9776 131.893 29.8318 131.893C38.0748 131.893 43.8841 136.133 45.5327 143.826H52.9907C51.3421 132.443 42.157 125.613 29.9103 125.613ZM26.8486 189.948V195.914C12.4822 196.464 2.43364 205.021 2.43364 217.817C2.43364 230.692 12.4822 239.013 26.8486 239.327V246H34.3065V239.327C49.8505 238.385 58.643 230.221 58.643 217.817C58.643 204.942 49.0654 196.385 34.3065 195.914V189.948H26.8486ZM9.81308 217.817C9.81308 208.318 16.329 202.351 26.8486 201.959V233.282C15.6224 232.497 9.81308 226.845 9.81308 217.817ZM34.3065 201.959C45.1402 202.351 51.2636 208.553 51.2636 217.817C51.2636 227.08 45.2972 232.811 34.3065 233.282V201.959ZM64.87 189.948V246H74.2121L101.689 198.976H101.846V246H109.304V189.948H99.8831L72.485 236.815H72.3279V189.948H64.87ZM125.136 189.948L123.959 228.65C123.723 236.815 122.075 240.74 116.736 240.74C115.48 240.74 114.146 240.426 112.733 239.955V246.314C114.46 247.021 115.951 247.335 117.678 247.335C125.372 247.335 130.789 241.054 131.181 230.535L132.437 196.385H152.77V246H160.228V189.948H125.136ZM170.327 189.948V246H194.742C205.261 246 212.091 239.955 212.091 229.514C212.091 218.602 205.419 212.95 194.899 212.95H177.785V189.948H170.327ZM177.785 239.72V219.23H192.701C200.237 219.23 204.633 222.684 204.633 229.514C204.633 236.422 200.237 239.72 192.701 239.72H177.785ZM219.034 189.948V246H226.1V199.368H226.257L243.763 246H250.122L267.629 199.368H267.786V246H274.851V189.948H264.645L246.903 237.05L229.24 189.948H219.034ZM308.615 188.613C300.451 188.613 293.935 191.361 289.068 196.935C284.2 202.508 281.767 209.495 281.767 217.974C281.767 234.381 291.815 247.335 308.615 247.335C324.866 247.335 335.464 235.088 335.464 217.974C335.464 201.88 325.651 188.613 308.615 188.613ZM289.225 217.974C289.225 211.379 290.952 205.884 294.327 201.488C297.782 197.092 302.492 194.893 308.537 194.893C314.66 194.893 319.449 197.092 322.903 201.488C326.279 205.806 328.006 211.379 328.006 217.974C328.006 231.241 320.862 241.054 308.615 241.054C296.84 241.054 289.225 231.555 289.225 217.974ZM362.922 189.948V195.914C348.556 196.464 338.507 205.021 338.507 217.817C338.507 230.692 348.556 239.013 362.922 239.327V246H370.38V239.327C385.924 238.385 394.717 230.221 394.717 217.817C394.717 204.942 385.139 196.385 370.38 195.914V189.948H362.922ZM345.887 217.817C345.887 208.318 352.403 202.351 362.922 201.959V233.282C351.696 232.497 345.887 226.845 345.887 217.817ZM370.38 201.959C381.214 202.351 387.337 208.553 387.337 217.817C387.337 227.08 381.371 232.811 370.38 233.282V201.959ZM424.652 188.613C416.488 188.613 409.972 191.361 405.104 196.935C400.237 202.508 397.803 209.495 397.803 217.974C397.803 234.381 407.852 247.335 424.652 247.335C440.902 247.335 451.501 235.088 451.501 217.974C451.501 201.88 441.688 188.613 424.652 188.613ZM405.261 217.974C405.261 211.379 406.988 205.884 410.364 201.488C413.818 197.092 418.529 194.893 424.573 194.893C430.697 194.893 435.486 197.092 438.94 201.488C442.316 205.806 444.043 211.379 444.043 217.974C444.043 231.241 436.899 241.054 424.652 241.054C412.876 241.054 405.261 231.555 405.261 217.974ZM458.234 189.948V246H465.692V220.329H495.209V246H502.667V189.948H495.209V214.049H465.692V189.948H458.234ZM519.913 189.948V204.628C519.913 217.817 517.715 228.964 512.612 239.72H507.117V259.895H514.575V246H554.691V259.895H562.149V239.72H555.947V189.948H519.913ZM527.293 196.228H548.489V239.72H520.777C525.487 229.043 527.293 216.875 527.293 204.864V196.228Z" fill="white"/>
</svg>
